<mxfile host="Electron" modified="2024-02-06T05:26:43.042Z" agent="Mozilla/5.0 (Windows NT 10.0; Win64; x64) AppleWebKit/537.36 (KHTML, like Gecko) draw.io/23.0.2 Chrome/120.0.6099.109 Electron/28.1.0 Safari/537.36" etag="HY3oq9JXIBYaFnpu3EdC" version="23.0.2" type="device">
  <diagram id="C5RBs43oDa-KdzZeNtuy" name="Page-1">
    <mxGraphModel dx="1793" dy="1045" grid="1" gridSize="10" guides="1" tooltips="1" connect="1" arrows="1" fold="1" page="1" pageScale="1" pageWidth="827" pageHeight="1169" background="#FFFFFF" math="0" shadow="0">
      <root>
        <mxCell id="WIyWlLk6GJQsqaUBKTNV-0" />
        <mxCell id="WIyWlLk6GJQsqaUBKTNV-1" parent="WIyWlLk6GJQsqaUBKTNV-0" />
        <mxCell id="b54PD9gBg_aZakiqYrdF-39" value="" style="rounded=0;whiteSpace=wrap;html=1;" vertex="1" parent="WIyWlLk6GJQsqaUBKTNV-1">
          <mxGeometry width="230" height="70" as="geometry" />
        </mxCell>
        <mxCell id="5EqtpJvFhj5ekkqIVv0R-9" value="" style="rounded=0;whiteSpace=wrap;html=1;shadow=0;glass=0;sketch=0;fillColor=#EBF5FF;strokeColor=none;" parent="WIyWlLk6GJQsqaUBKTNV-1" vertex="1">
          <mxGeometry x="50" y="270" width="700" height="710" as="geometry" />
        </mxCell>
        <mxCell id="b54PD9gBg_aZakiqYrdF-34" value="" style="rounded=0;whiteSpace=wrap;html=1;shadow=0;glass=0;sketch=0;strokeColor=none;" vertex="1" parent="WIyWlLk6GJQsqaUBKTNV-1">
          <mxGeometry x="550" y="850" width="192.5" height="110" as="geometry" />
        </mxCell>
        <mxCell id="b54PD9gBg_aZakiqYrdF-32" value="" style="rounded=0;whiteSpace=wrap;html=1;shadow=0;glass=0;sketch=0;strokeColor=none;" vertex="1" parent="WIyWlLk6GJQsqaUBKTNV-1">
          <mxGeometry x="640" y="790" width="110" height="190" as="geometry" />
        </mxCell>
        <mxCell id="b54PD9gBg_aZakiqYrdF-28" value="" style="rounded=0;whiteSpace=wrap;html=1;shadow=0;glass=0;sketch=0;strokeColor=none;" vertex="1" parent="WIyWlLk6GJQsqaUBKTNV-1">
          <mxGeometry x="10" y="570" width="70" height="140" as="geometry" />
        </mxCell>
        <mxCell id="b54PD9gBg_aZakiqYrdF-15" value="" style="rounded=0;whiteSpace=wrap;html=1;shadow=0;glass=0;sketch=0;fillColor=#FFEEED;strokeColor=none;" vertex="1" parent="WIyWlLk6GJQsqaUBKTNV-1">
          <mxGeometry x="360" y="960" width="90" height="20" as="geometry" />
        </mxCell>
        <mxCell id="b54PD9gBg_aZakiqYrdF-13" value="" style="rounded=0;whiteSpace=wrap;html=1;shadow=0;glass=0;sketch=0;strokeColor=none;" vertex="1" parent="WIyWlLk6GJQsqaUBKTNV-1">
          <mxGeometry x="540" y="630" width="90" height="70" as="geometry" />
        </mxCell>
        <mxCell id="b54PD9gBg_aZakiqYrdF-12" value="" style="rounded=0;whiteSpace=wrap;html=1;shadow=0;glass=0;sketch=0;fillColor=#FFEEED;strokeColor=none;" vertex="1" parent="WIyWlLk6GJQsqaUBKTNV-1">
          <mxGeometry x="480" y="480" width="60" height="20" as="geometry" />
        </mxCell>
        <mxCell id="b54PD9gBg_aZakiqYrdF-11" value="" style="rounded=0;whiteSpace=wrap;html=1;shadow=0;glass=0;sketch=0;fillColor=#FFEEED;strokeColor=none;" vertex="1" parent="WIyWlLk6GJQsqaUBKTNV-1">
          <mxGeometry x="480" y="500" width="165" height="60" as="geometry" />
        </mxCell>
        <mxCell id="GiowLHQKf7RU1HIWOEqw-1" value="" style="rounded=0;whiteSpace=wrap;html=1;shadow=0;glass=0;sketch=0;fillColor=#FFEEED;strokeColor=none;" parent="WIyWlLk6GJQsqaUBKTNV-1" vertex="1">
          <mxGeometry x="480" y="690" width="60" height="20" as="geometry" />
        </mxCell>
        <mxCell id="GiowLHQKf7RU1HIWOEqw-0" value="" style="rounded=0;whiteSpace=wrap;html=1;shadow=0;glass=0;sketch=0;fillColor=#FFEEED;strokeColor=none;" parent="WIyWlLk6GJQsqaUBKTNV-1" vertex="1">
          <mxGeometry x="250" y="680" width="60" height="30" as="geometry" />
        </mxCell>
        <mxCell id="5EqtpJvFhj5ekkqIVv0R-16" value="" style="rounded=0;whiteSpace=wrap;html=1;shadow=0;glass=0;sketch=0;fillColor=#FFEEED;strokeColor=none;" parent="WIyWlLk6GJQsqaUBKTNV-1" vertex="1">
          <mxGeometry x="10" y="980" width="540" height="180" as="geometry" />
        </mxCell>
        <mxCell id="b54PD9gBg_aZakiqYrdF-33" value="" style="rounded=0;whiteSpace=wrap;html=1;shadow=0;glass=0;sketch=0;strokeColor=none;" vertex="1" parent="WIyWlLk6GJQsqaUBKTNV-1">
          <mxGeometry x="440" y="900" width="200" height="110" as="geometry" />
        </mxCell>
        <mxCell id="5EqtpJvFhj5ekkqIVv0R-30" value="" style="rounded=0;whiteSpace=wrap;html=1;shadow=0;glass=0;sketch=0;fillColor=default;strokeColor=none;" parent="WIyWlLk6GJQsqaUBKTNV-1" vertex="1">
          <mxGeometry x="50" y="910" width="130" height="70" as="geometry" />
        </mxCell>
        <mxCell id="b54PD9gBg_aZakiqYrdF-35" value="" style="rounded=0;whiteSpace=wrap;html=1;shadow=0;glass=0;sketch=0;fillColor=#FFEEED;strokeColor=none;" vertex="1" parent="WIyWlLk6GJQsqaUBKTNV-1">
          <mxGeometry x="20" y="970" width="160" height="10" as="geometry" />
        </mxCell>
        <mxCell id="5EqtpJvFhj5ekkqIVv0R-26" value="" style="rounded=0;whiteSpace=wrap;html=1;shadow=0;glass=0;sketch=0;strokeColor=none;" parent="WIyWlLk6GJQsqaUBKTNV-1" vertex="1">
          <mxGeometry x="10" y="500" width="470" height="70" as="geometry" />
        </mxCell>
        <mxCell id="b54PD9gBg_aZakiqYrdF-6" value="" style="rounded=0;whiteSpace=wrap;html=1;shadow=0;glass=0;sketch=0;fillColor=#cdeb8b;strokeColor=none;" vertex="1" parent="WIyWlLk6GJQsqaUBKTNV-1">
          <mxGeometry x="160" y="560" width="470" height="70" as="geometry" />
        </mxCell>
        <mxCell id="5EqtpJvFhj5ekkqIVv0R-25" value="" style="rounded=0;whiteSpace=wrap;html=1;shadow=0;glass=0;sketch=0;strokeColor=none;" parent="WIyWlLk6GJQsqaUBKTNV-1" vertex="1">
          <mxGeometry x="420" y="350" width="330" height="70" as="geometry" />
        </mxCell>
        <mxCell id="5EqtpJvFhj5ekkqIVv0R-17" value="" style="rounded=0;whiteSpace=wrap;html=1;shadow=0;glass=0;sketch=0;fillColor=#cdeb8b;strokeColor=none;" parent="WIyWlLk6GJQsqaUBKTNV-1" vertex="1">
          <mxGeometry x="80" y="480" width="80" height="230" as="geometry" />
        </mxCell>
        <mxCell id="5EqtpJvFhj5ekkqIVv0R-15" value="" style="rounded=0;whiteSpace=wrap;html=1;shadow=0;glass=0;sketch=0;fillColor=#FFEEED;strokeColor=none;" parent="WIyWlLk6GJQsqaUBKTNV-1" vertex="1">
          <mxGeometry x="160" y="770" width="120" height="60" as="geometry" />
        </mxCell>
        <mxCell id="5EqtpJvFhj5ekkqIVv0R-14" value="" style="rounded=0;whiteSpace=wrap;html=1;shadow=0;glass=0;sketch=0;fillColor=#FFEEED;strokeColor=none;" parent="WIyWlLk6GJQsqaUBKTNV-1" vertex="1">
          <mxGeometry x="720" y="274" width="90" height="70" as="geometry" />
        </mxCell>
        <mxCell id="5EqtpJvFhj5ekkqIVv0R-13" value="" style="rounded=0;whiteSpace=wrap;html=1;shadow=0;glass=0;sketch=0;fillColor=#FFEEED;strokeColor=none;" parent="WIyWlLk6GJQsqaUBKTNV-1" vertex="1">
          <mxGeometry x="250" y="630" width="290" height="60" as="geometry" />
        </mxCell>
        <mxCell id="5EqtpJvFhj5ekkqIVv0R-12" value="" style="rounded=0;whiteSpace=wrap;html=1;shadow=0;glass=0;sketch=0;fillColor=#FFEEED;strokeColor=none;" parent="WIyWlLk6GJQsqaUBKTNV-1" vertex="1">
          <mxGeometry x="360" y="410" width="60" height="30" as="geometry" />
        </mxCell>
        <mxCell id="5EqtpJvFhj5ekkqIVv0R-10" value="" style="rounded=0;whiteSpace=wrap;html=1;shadow=0;glass=0;sketch=0;fillColor=#FFEEED;strokeColor=none;" parent="WIyWlLk6GJQsqaUBKTNV-1" vertex="1">
          <mxGeometry x="160" y="350" width="260" height="60" as="geometry" />
        </mxCell>
        <mxCell id="5EqtpJvFhj5ekkqIVv0R-7" value="" style="rounded=0;whiteSpace=wrap;html=1;shadow=0;glass=0;sketch=0;fillColor=#EBF5FF;strokeColor=none;" parent="WIyWlLk6GJQsqaUBKTNV-1" vertex="1">
          <mxGeometry x="610" y="90" width="140" height="180" as="geometry" />
        </mxCell>
        <mxCell id="5EqtpJvFhj5ekkqIVv0R-5" value="" style="rounded=0;whiteSpace=wrap;html=1;shadow=0;glass=0;sketch=0;fillColor=#F9F7FF;strokeColor=none;" parent="WIyWlLk6GJQsqaUBKTNV-1" vertex="1">
          <mxGeometry y="90" width="610" height="120" as="geometry" />
        </mxCell>
        <mxCell id="PJhP6xTFTNzBTgC3ce9j-2" value="" style="edgeStyle=orthogonalEdgeStyle;rounded=0;orthogonalLoop=1;jettySize=auto;html=1;exitX=1;exitY=0.5;exitDx=0;exitDy=0;" parent="WIyWlLk6GJQsqaUBKTNV-1" target="PJhP6xTFTNzBTgC3ce9j-1" edge="1" source="PJhP6xTFTNzBTgC3ce9j-87">
          <mxGeometry relative="1" as="geometry">
            <mxPoint x="130" y="170" as="sourcePoint" />
          </mxGeometry>
        </mxCell>
        <mxCell id="PJhP6xTFTNzBTgC3ce9j-4" value="" style="edgeStyle=orthogonalEdgeStyle;rounded=0;orthogonalLoop=1;jettySize=auto;html=1;" parent="WIyWlLk6GJQsqaUBKTNV-1" source="PJhP6xTFTNzBTgC3ce9j-1" target="PJhP6xTFTNzBTgC3ce9j-3" edge="1">
          <mxGeometry relative="1" as="geometry" />
        </mxCell>
        <mxCell id="PJhP6xTFTNzBTgC3ce9j-1" value="TCP Request&lt;br&gt;(Connection)" style="shape=parallelogram;perimeter=parallelogramPerimeter;whiteSpace=wrap;html=1;fixedSize=1;fillColor=#e1d5e7;strokeColor=#9673a6;strokeWidth=2;" parent="WIyWlLk6GJQsqaUBKTNV-1" vertex="1">
          <mxGeometry x="220" y="140" width="120" height="50" as="geometry" />
        </mxCell>
        <mxCell id="PJhP6xTFTNzBTgC3ce9j-9" value="" style="edgeStyle=orthogonalEdgeStyle;rounded=1;orthogonalLoop=1;jettySize=auto;html=1;dashed=1;entryX=0;entryY=0.5;entryDx=0;entryDy=0;" parent="WIyWlLk6GJQsqaUBKTNV-1" source="PJhP6xTFTNzBTgC3ce9j-3" target="5EqtpJvFhj5ekkqIVv0R-3" edge="1">
          <mxGeometry relative="1" as="geometry">
            <mxPoint x="620" y="170" as="targetPoint" />
          </mxGeometry>
        </mxCell>
        <mxCell id="PJhP6xTFTNzBTgC3ce9j-3" value="Launch Async Processing" style="whiteSpace=wrap;html=1;fillColor=#e1d5e7;strokeColor=#9673a6;strokeWidth=2;rounded=1;" parent="WIyWlLk6GJQsqaUBKTNV-1" vertex="1">
          <mxGeometry x="420" y="140" width="120" height="50" as="geometry" />
        </mxCell>
        <mxCell id="PJhP6xTFTNzBTgC3ce9j-5" value="Main Program" style="endArrow=classic;html=1;rounded=1;entryX=0.5;entryY=0;entryDx=0;entryDy=0;exitX=1;exitY=0.5;exitDx=0;exitDy=0;dashed=1;labelBackgroundColor=none;" parent="WIyWlLk6GJQsqaUBKTNV-1" source="PJhP6xTFTNzBTgC3ce9j-3" target="PJhP6xTFTNzBTgC3ce9j-87" edge="1">
          <mxGeometry x="-0.5932" y="-10" width="50" height="50" relative="1" as="geometry">
            <mxPoint x="450" y="270" as="sourcePoint" />
            <mxPoint x="80" y="140" as="targetPoint" />
            <Array as="points">
              <mxPoint x="560" y="165" />
              <mxPoint x="560" y="110" />
              <mxPoint x="80" y="110" />
            </Array>
            <mxPoint as="offset" />
          </mxGeometry>
        </mxCell>
        <mxCell id="PJhP6xTFTNzBTgC3ce9j-11" value="" style="edgeStyle=orthogonalEdgeStyle;rounded=1;orthogonalLoop=1;jettySize=auto;html=1;exitX=0.5;exitY=1;exitDx=0;exitDy=0;" parent="WIyWlLk6GJQsqaUBKTNV-1" source="5EqtpJvFhj5ekkqIVv0R-3" target="PJhP6xTFTNzBTgC3ce9j-10" edge="1">
          <mxGeometry relative="1" as="geometry">
            <mxPoint x="680" y="150" as="sourcePoint" />
          </mxGeometry>
        </mxCell>
        <mxCell id="PJhP6xTFTNzBTgC3ce9j-13" value="NO" style="edgeStyle=orthogonalEdgeStyle;rounded=1;orthogonalLoop=1;jettySize=auto;html=1;labelBackgroundColor=none;" parent="WIyWlLk6GJQsqaUBKTNV-1" source="PJhP6xTFTNzBTgC3ce9j-10" target="PJhP6xTFTNzBTgC3ce9j-12" edge="1">
          <mxGeometry x="-0.8333" y="-10" relative="1" as="geometry">
            <mxPoint as="offset" />
          </mxGeometry>
        </mxCell>
        <mxCell id="PJhP6xTFTNzBTgC3ce9j-36" value="YES" style="edgeStyle=orthogonalEdgeStyle;rounded=1;orthogonalLoop=1;jettySize=auto;html=1;labelBackgroundColor=none;" parent="WIyWlLk6GJQsqaUBKTNV-1" source="PJhP6xTFTNzBTgC3ce9j-10" target="PJhP6xTFTNzBTgC3ce9j-35" edge="1">
          <mxGeometry x="-0.6667" y="10" relative="1" as="geometry">
            <mxPoint as="offset" />
          </mxGeometry>
        </mxCell>
        <mxCell id="PJhP6xTFTNzBTgC3ce9j-10" value="Error?" style="rhombus;whiteSpace=wrap;html=1;fillColor=#f8cecc;strokeColor=#b85450;rounded=1;strokeWidth=2;" parent="WIyWlLk6GJQsqaUBKTNV-1" vertex="1">
          <mxGeometry x="640" y="289" width="80" height="40" as="geometry" />
        </mxCell>
        <mxCell id="PJhP6xTFTNzBTgC3ce9j-21" value="NO" style="edgeStyle=orthogonalEdgeStyle;rounded=1;orthogonalLoop=1;jettySize=auto;html=1;labelBackgroundColor=none;" parent="WIyWlLk6GJQsqaUBKTNV-1" source="PJhP6xTFTNzBTgC3ce9j-12" target="PJhP6xTFTNzBTgC3ce9j-20" edge="1">
          <mxGeometry x="-0.8182" y="-10" relative="1" as="geometry">
            <mxPoint as="offset" />
          </mxGeometry>
        </mxCell>
        <mxCell id="PJhP6xTFTNzBTgC3ce9j-104" value="YES" style="edgeStyle=orthogonalEdgeStyle;rounded=1;orthogonalLoop=1;jettySize=auto;html=1;labelBackgroundColor=none;" parent="WIyWlLk6GJQsqaUBKTNV-1" source="PJhP6xTFTNzBTgC3ce9j-12" target="PJhP6xTFTNzBTgC3ce9j-103" edge="1">
          <mxGeometry x="-0.5" y="-20" relative="1" as="geometry">
            <mxPoint as="offset" />
          </mxGeometry>
        </mxCell>
        <mxCell id="PJhP6xTFTNzBTgC3ce9j-12" value="Close?" style="rhombus;whiteSpace=wrap;html=1;fillColor=#fff2cc;strokeColor=#d6b656;rounded=1;strokeWidth=2;" parent="WIyWlLk6GJQsqaUBKTNV-1" vertex="1">
          <mxGeometry x="500" y="289" width="80" height="40" as="geometry" />
        </mxCell>
        <mxCell id="PJhP6xTFTNzBTgC3ce9j-27" value="" style="edgeStyle=orthogonalEdgeStyle;rounded=1;orthogonalLoop=1;jettySize=auto;html=1;entryX=1;entryY=0.5;entryDx=0;entryDy=0;exitX=0;exitY=0.5;exitDx=0;exitDy=0;" parent="WIyWlLk6GJQsqaUBKTNV-1" source="PJhP6xTFTNzBTgC3ce9j-20" target="5EqtpJvFhj5ekkqIVv0R-2" edge="1">
          <mxGeometry relative="1" as="geometry">
            <mxPoint x="140" y="240" as="targetPoint" />
            <Array as="points">
              <mxPoint x="200" y="309" />
            </Array>
          </mxGeometry>
        </mxCell>
        <mxCell id="PJhP6xTFTNzBTgC3ce9j-20" value="Read&lt;br&gt;Request" style="shape=parallelogram;perimeter=parallelogramPerimeter;whiteSpace=wrap;html=1;fixedSize=1;fillColor=#fff2cc;strokeColor=#d6b656;rounded=1;strokeWidth=2;" parent="WIyWlLk6GJQsqaUBKTNV-1" vertex="1">
          <mxGeometry x="220" y="284" width="120" height="50" as="geometry" />
        </mxCell>
        <mxCell id="PJhP6xTFTNzBTgC3ce9j-30" value="" style="edgeStyle=orthogonalEdgeStyle;rounded=1;orthogonalLoop=1;jettySize=auto;html=1;exitX=0.5;exitY=1;exitDx=0;exitDy=0;" parent="WIyWlLk6GJQsqaUBKTNV-1" source="5EqtpJvFhj5ekkqIVv0R-2" target="PJhP6xTFTNzBTgC3ce9j-29" edge="1">
          <mxGeometry relative="1" as="geometry">
            <mxPoint x="80" y="270" as="sourcePoint" />
          </mxGeometry>
        </mxCell>
        <mxCell id="PJhP6xTFTNzBTgC3ce9j-34" value="YES" style="edgeStyle=orthogonalEdgeStyle;rounded=1;orthogonalLoop=1;jettySize=auto;html=1;labelBackgroundColor=none;" parent="WIyWlLk6GJQsqaUBKTNV-1" source="PJhP6xTFTNzBTgC3ce9j-29" target="PJhP6xTFTNzBTgC3ce9j-33" edge="1">
          <mxGeometry x="-0.6" y="10" relative="1" as="geometry">
            <mxPoint as="offset" />
          </mxGeometry>
        </mxCell>
        <mxCell id="PJhP6xTFTNzBTgC3ce9j-38" value="NO" style="edgeStyle=orthogonalEdgeStyle;rounded=1;orthogonalLoop=1;jettySize=auto;html=1;labelBackgroundColor=none;" parent="WIyWlLk6GJQsqaUBKTNV-1" source="PJhP6xTFTNzBTgC3ce9j-29" target="PJhP6xTFTNzBTgC3ce9j-37" edge="1">
          <mxGeometry x="0.2" y="-10" relative="1" as="geometry">
            <mxPoint as="offset" />
          </mxGeometry>
        </mxCell>
        <mxCell id="PJhP6xTFTNzBTgC3ce9j-29" value="Error?" style="rhombus;whiteSpace=wrap;html=1;fillColor=#f8cecc;strokeColor=#b85450;rounded=1;strokeWidth=2;" parent="WIyWlLk6GJQsqaUBKTNV-1" vertex="1">
          <mxGeometry x="80" y="360" width="80" height="40" as="geometry" />
        </mxCell>
        <mxCell id="PJhP6xTFTNzBTgC3ce9j-33" value="X" style="ellipse;whiteSpace=wrap;html=1;fillColor=#f8cecc;strokeColor=#b85450;rounded=1;strokeWidth=2;" parent="WIyWlLk6GJQsqaUBKTNV-1" vertex="1">
          <mxGeometry x="220" y="360" width="40" height="40" as="geometry" />
        </mxCell>
        <mxCell id="PJhP6xTFTNzBTgC3ce9j-35" value="X" style="ellipse;whiteSpace=wrap;html=1;fillColor=#f8cecc;strokeColor=#b85450;rounded=1;strokeWidth=2;" parent="WIyWlLk6GJQsqaUBKTNV-1" vertex="1">
          <mxGeometry x="760" y="289" width="40" height="40" as="geometry" />
        </mxCell>
        <mxCell id="PJhP6xTFTNzBTgC3ce9j-42" value="NO" style="edgeStyle=orthogonalEdgeStyle;rounded=1;orthogonalLoop=1;jettySize=auto;html=1;labelBackgroundColor=none;" parent="WIyWlLk6GJQsqaUBKTNV-1" source="PJhP6xTFTNzBTgC3ce9j-37" target="PJhP6xTFTNzBTgC3ce9j-41" edge="1">
          <mxGeometry x="-1" y="10" relative="1" as="geometry">
            <mxPoint as="offset" />
          </mxGeometry>
        </mxCell>
        <mxCell id="PJhP6xTFTNzBTgC3ce9j-75" value="YES" style="edgeStyle=orthogonalEdgeStyle;rounded=1;orthogonalLoop=1;jettySize=auto;html=1;exitX=0.5;exitY=1;exitDx=0;exitDy=0;entryX=0.5;entryY=0;entryDx=0;entryDy=0;labelBackgroundColor=none;" parent="WIyWlLk6GJQsqaUBKTNV-1" source="PJhP6xTFTNzBTgC3ce9j-37" target="PJhP6xTFTNzBTgC3ce9j-73" edge="1">
          <mxGeometry x="-0.8" y="20" relative="1" as="geometry">
            <mxPoint as="offset" />
          </mxGeometry>
        </mxCell>
        <mxCell id="PJhP6xTFTNzBTgC3ce9j-37" value="Early&lt;br&gt;Response?" style="rhombus;whiteSpace=wrap;html=1;fillColor=#fff2cc;strokeColor=#d6b656;rounded=1;strokeWidth=2;" parent="WIyWlLk6GJQsqaUBKTNV-1" vertex="1">
          <mxGeometry x="60" y="430" width="120" height="50" as="geometry" />
        </mxCell>
        <mxCell id="PJhP6xTFTNzBTgC3ce9j-44" value="" style="edgeStyle=orthogonalEdgeStyle;rounded=1;orthogonalLoop=1;jettySize=auto;html=1;" parent="WIyWlLk6GJQsqaUBKTNV-1" source="PJhP6xTFTNzBTgC3ce9j-41" target="PJhP6xTFTNzBTgC3ce9j-43" edge="1">
          <mxGeometry relative="1" as="geometry" />
        </mxCell>
        <mxCell id="PJhP6xTFTNzBTgC3ce9j-41" value="Routing&lt;br&gt;(Controller)" style="shape=parallelogram;perimeter=parallelogramPerimeter;whiteSpace=wrap;html=1;fixedSize=1;fillColor=#dae8fc;strokeColor=#6c8ebf;rounded=1;strokeWidth=2;" parent="WIyWlLk6GJQsqaUBKTNV-1" vertex="1">
          <mxGeometry x="210" y="430" width="120" height="50" as="geometry" />
        </mxCell>
        <mxCell id="PJhP6xTFTNzBTgC3ce9j-48" value="NO" style="edgeStyle=orthogonalEdgeStyle;rounded=1;orthogonalLoop=1;jettySize=auto;html=1;labelBackgroundColor=none;" parent="WIyWlLk6GJQsqaUBKTNV-1" source="PJhP6xTFTNzBTgC3ce9j-43" target="PJhP6xTFTNzBTgC3ce9j-47" edge="1">
          <mxGeometry x="-1" y="10" relative="1" as="geometry">
            <mxPoint as="offset" />
          </mxGeometry>
        </mxCell>
        <mxCell id="PJhP6xTFTNzBTgC3ce9j-43" value="Error?" style="rhombus;whiteSpace=wrap;html=1;fillColor=#f8cecc;strokeColor=#b85450;rounded=1;strokeWidth=2;" parent="WIyWlLk6GJQsqaUBKTNV-1" vertex="1">
          <mxGeometry x="350" y="435" width="80" height="40" as="geometry" />
        </mxCell>
        <mxCell id="PJhP6xTFTNzBTgC3ce9j-45" value="YES" style="endArrow=classic;html=1;rounded=1;exitX=0.5;exitY=0;exitDx=0;exitDy=0;entryX=1;entryY=0.5;entryDx=0;entryDy=0;labelBackgroundColor=none;" parent="WIyWlLk6GJQsqaUBKTNV-1" source="PJhP6xTFTNzBTgC3ce9j-43" target="PJhP6xTFTNzBTgC3ce9j-33" edge="1">
          <mxGeometry x="-0.875" y="20" width="50" height="50" relative="1" as="geometry">
            <mxPoint x="380" y="420" as="sourcePoint" />
            <mxPoint x="430" y="370" as="targetPoint" />
            <Array as="points">
              <mxPoint x="390" y="380" />
            </Array>
            <mxPoint as="offset" />
          </mxGeometry>
        </mxCell>
        <mxCell id="PJhP6xTFTNzBTgC3ce9j-50" value="YES" style="edgeStyle=orthogonalEdgeStyle;rounded=1;orthogonalLoop=1;jettySize=auto;html=1;labelBackgroundColor=none;" parent="WIyWlLk6GJQsqaUBKTNV-1" source="PJhP6xTFTNzBTgC3ce9j-47" target="PJhP6xTFTNzBTgC3ce9j-49" edge="1">
          <mxGeometry x="-0.75" y="10" relative="1" as="geometry">
            <mxPoint as="offset" />
          </mxGeometry>
        </mxCell>
        <mxCell id="PJhP6xTFTNzBTgC3ce9j-47" value="Controller&lt;br&gt;Selected?" style="rhombus;whiteSpace=wrap;html=1;fillColor=#fff2cc;strokeColor=#d6b656;rounded=1;strokeWidth=2;" parent="WIyWlLk6GJQsqaUBKTNV-1" vertex="1">
          <mxGeometry x="450" y="430" width="120" height="50" as="geometry" />
        </mxCell>
        <mxCell id="PJhP6xTFTNzBTgC3ce9j-49" value="Controller Initialization" style="whiteSpace=wrap;html=1;fillColor=#dae8fc;strokeColor=#6c8ebf;rounded=1;strokeWidth=2;perimeterSpacing=0;glass=0;shadow=0;sketch=0;" parent="WIyWlLk6GJQsqaUBKTNV-1" vertex="1">
          <mxGeometry x="620" y="430" width="120" height="50" as="geometry" />
        </mxCell>
        <mxCell id="PJhP6xTFTNzBTgC3ce9j-63" value="YES" style="edgeStyle=orthogonalEdgeStyle;rounded=1;orthogonalLoop=1;jettySize=auto;html=1;exitX=0;exitY=0.5;exitDx=0;exitDy=0;entryX=1;entryY=0.5;entryDx=0;entryDy=0;labelBackgroundColor=none;" parent="WIyWlLk6GJQsqaUBKTNV-1" source="PJhP6xTFTNzBTgC3ce9j-54" target="b54PD9gBg_aZakiqYrdF-2" edge="1">
          <mxGeometry x="-0.7143" y="-10" relative="1" as="geometry">
            <mxPoint as="offset" />
          </mxGeometry>
        </mxCell>
        <mxCell id="PJhP6xTFTNzBTgC3ce9j-70" value="NO" style="edgeStyle=orthogonalEdgeStyle;rounded=1;orthogonalLoop=1;jettySize=auto;html=1;labelBackgroundColor=none;entryX=0.5;entryY=0;entryDx=0;entryDy=0;" parent="WIyWlLk6GJQsqaUBKTNV-1" source="PJhP6xTFTNzBTgC3ce9j-54" target="b54PD9gBg_aZakiqYrdF-5" edge="1">
          <mxGeometry x="0.2" y="-10" relative="1" as="geometry">
            <mxPoint as="offset" />
          </mxGeometry>
        </mxCell>
        <mxCell id="PJhP6xTFTNzBTgC3ce9j-54" value="Error?" style="rhombus;whiteSpace=wrap;html=1;fillColor=#f8cecc;strokeColor=#b85450;rounded=1;strokeWidth=2;" parent="WIyWlLk6GJQsqaUBKTNV-1" vertex="1">
          <mxGeometry x="640" y="510" width="80" height="40" as="geometry" />
        </mxCell>
        <mxCell id="PJhP6xTFTNzBTgC3ce9j-55" value="" style="endArrow=classic;html=1;rounded=1;exitX=0.5;exitY=1;exitDx=0;exitDy=0;entryX=0.5;entryY=0;entryDx=0;entryDy=0;" parent="WIyWlLk6GJQsqaUBKTNV-1" source="PJhP6xTFTNzBTgC3ce9j-49" target="PJhP6xTFTNzBTgC3ce9j-54" edge="1">
          <mxGeometry width="50" height="50" relative="1" as="geometry">
            <mxPoint x="630" y="600" as="sourcePoint" />
            <mxPoint x="680" y="550" as="targetPoint" />
          </mxGeometry>
        </mxCell>
        <mxCell id="PJhP6xTFTNzBTgC3ce9j-57" value="X" style="ellipse;whiteSpace=wrap;html=1;fillColor=#f8cecc;strokeColor=#b85450;rounded=1;strokeWidth=2;" parent="WIyWlLk6GJQsqaUBKTNV-1" vertex="1">
          <mxGeometry x="260" y="640" width="40" height="40" as="geometry" />
        </mxCell>
        <mxCell id="PJhP6xTFTNzBTgC3ce9j-64" value="YES" style="edgeStyle=orthogonalEdgeStyle;rounded=1;orthogonalLoop=1;jettySize=auto;html=1;exitX=0.5;exitY=0;exitDx=0;exitDy=0;entryX=1;entryY=0.5;entryDx=0;entryDy=0;labelBackgroundColor=none;" parent="WIyWlLk6GJQsqaUBKTNV-1" source="PJhP6xTFTNzBTgC3ce9j-61" target="PJhP6xTFTNzBTgC3ce9j-57" edge="1">
          <mxGeometry x="-0.8868" y="20" relative="1" as="geometry">
            <mxPoint as="offset" />
          </mxGeometry>
        </mxCell>
        <mxCell id="PJhP6xTFTNzBTgC3ce9j-66" value="NO" style="edgeStyle=orthogonalEdgeStyle;rounded=1;orthogonalLoop=1;jettySize=auto;html=1;labelBackgroundColor=none;" parent="WIyWlLk6GJQsqaUBKTNV-1" source="PJhP6xTFTNzBTgC3ce9j-61" target="PJhP6xTFTNzBTgC3ce9j-65" edge="1">
          <mxGeometry x="-1" y="15" relative="1" as="geometry">
            <mxPoint as="offset" />
          </mxGeometry>
        </mxCell>
        <mxCell id="PJhP6xTFTNzBTgC3ce9j-61" value="Error?" style="rhombus;whiteSpace=wrap;html=1;fillColor=#f8cecc;strokeColor=#b85450;rounded=1;strokeWidth=2;" parent="WIyWlLk6GJQsqaUBKTNV-1" vertex="1">
          <mxGeometry x="470" y="715" width="80" height="40" as="geometry" />
        </mxCell>
        <mxCell id="PJhP6xTFTNzBTgC3ce9j-67" value="NO" style="edgeStyle=orthogonalEdgeStyle;rounded=1;orthogonalLoop=1;jettySize=auto;html=1;exitX=0.5;exitY=0;exitDx=0;exitDy=0;entryX=0.5;entryY=1;entryDx=0;entryDy=0;labelBackgroundColor=none;" parent="WIyWlLk6GJQsqaUBKTNV-1" source="PJhP6xTFTNzBTgC3ce9j-65" target="PJhP6xTFTNzBTgC3ce9j-57" edge="1">
          <mxGeometry x="-0.3333" y="20" relative="1" as="geometry">
            <mxPoint y="1" as="offset" />
          </mxGeometry>
        </mxCell>
        <mxCell id="PJhP6xTFTNzBTgC3ce9j-74" value="YES" style="edgeStyle=orthogonalEdgeStyle;rounded=1;orthogonalLoop=1;jettySize=auto;html=1;labelBackgroundColor=none;" parent="WIyWlLk6GJQsqaUBKTNV-1" source="PJhP6xTFTNzBTgC3ce9j-65" target="PJhP6xTFTNzBTgC3ce9j-73" edge="1">
          <mxGeometry x="-1" y="10" relative="1" as="geometry">
            <mxPoint as="offset" />
          </mxGeometry>
        </mxCell>
        <mxCell id="PJhP6xTFTNzBTgC3ce9j-65" value="Response&lt;br&gt;Generated?" style="rhombus;whiteSpace=wrap;html=1;fillColor=#fff2cc;strokeColor=#d6b656;rounded=1;strokeWidth=2;" parent="WIyWlLk6GJQsqaUBKTNV-1" vertex="1">
          <mxGeometry x="220" y="710" width="120" height="50" as="geometry" />
        </mxCell>
        <mxCell id="PJhP6xTFTNzBTgC3ce9j-71" style="edgeStyle=orthogonalEdgeStyle;rounded=1;orthogonalLoop=1;jettySize=auto;html=1;exitX=0;exitY=0.5;exitDx=0;exitDy=0;entryX=1;entryY=0.5;entryDx=0;entryDy=0;" parent="WIyWlLk6GJQsqaUBKTNV-1" source="PJhP6xTFTNzBTgC3ce9j-69" target="PJhP6xTFTNzBTgC3ce9j-61" edge="1">
          <mxGeometry relative="1" as="geometry" />
        </mxCell>
        <mxCell id="PJhP6xTFTNzBTgC3ce9j-69" value="Controller&lt;br&gt;(Response)" style="shape=parallelogram;perimeter=parallelogramPerimeter;whiteSpace=wrap;html=1;fixedSize=1;fillColor=#dae8fc;strokeColor=#6c8ebf;rounded=1;strokeWidth=2;" parent="WIyWlLk6GJQsqaUBKTNV-1" vertex="1">
          <mxGeometry x="620" y="710" width="120" height="50" as="geometry" />
        </mxCell>
        <mxCell id="PJhP6xTFTNzBTgC3ce9j-77" style="edgeStyle=orthogonalEdgeStyle;rounded=1;orthogonalLoop=1;jettySize=auto;html=1;exitX=0.5;exitY=1;exitDx=0;exitDy=0;entryX=0.5;entryY=0;entryDx=0;entryDy=0;" parent="WIyWlLk6GJQsqaUBKTNV-1" source="PJhP6xTFTNzBTgC3ce9j-73" target="PJhP6xTFTNzBTgC3ce9j-76" edge="1">
          <mxGeometry relative="1" as="geometry" />
        </mxCell>
        <mxCell id="PJhP6xTFTNzBTgC3ce9j-79" value="YES" style="edgeStyle=orthogonalEdgeStyle;rounded=1;orthogonalLoop=1;jettySize=auto;html=1;exitX=1;exitY=0.5;exitDx=0;exitDy=0;entryX=0;entryY=0.5;entryDx=0;entryDy=0;labelBackgroundColor=none;" parent="WIyWlLk6GJQsqaUBKTNV-1" source="PJhP6xTFTNzBTgC3ce9j-76" target="PJhP6xTFTNzBTgC3ce9j-78" edge="1">
          <mxGeometry x="-0.6667" y="10" relative="1" as="geometry">
            <mxPoint as="offset" />
          </mxGeometry>
        </mxCell>
        <mxCell id="PJhP6xTFTNzBTgC3ce9j-81" value="NO" style="edgeStyle=orthogonalEdgeStyle;rounded=1;orthogonalLoop=1;jettySize=auto;html=1;labelBackgroundColor=none;entryX=0.5;entryY=0;entryDx=0;entryDy=0;" parent="WIyWlLk6GJQsqaUBKTNV-1" source="PJhP6xTFTNzBTgC3ce9j-76" target="PJhP6xTFTNzBTgC3ce9j-80" edge="1">
          <mxGeometry x="-0.7143" y="-10" relative="1" as="geometry">
            <Array as="points" />
            <mxPoint as="offset" />
            <mxPoint x="160" y="810" as="targetPoint" />
          </mxGeometry>
        </mxCell>
        <mxCell id="PJhP6xTFTNzBTgC3ce9j-76" value="Error?" style="rhombus;whiteSpace=wrap;html=1;fillColor=#f8cecc;strokeColor=#b85450;rounded=1;strokeWidth=2;" parent="WIyWlLk6GJQsqaUBKTNV-1" vertex="1">
          <mxGeometry x="80" y="780" width="80" height="40" as="geometry" />
        </mxCell>
        <mxCell id="PJhP6xTFTNzBTgC3ce9j-78" value="X" style="ellipse;whiteSpace=wrap;html=1;fillColor=#f8cecc;strokeColor=#b85450;rounded=1;strokeWidth=2;" parent="WIyWlLk6GJQsqaUBKTNV-1" vertex="1">
          <mxGeometry x="230" y="780" width="40" height="40" as="geometry" />
        </mxCell>
        <mxCell id="ySPMdyJ_zOk3gm6d2G-Y-19" style="edgeStyle=orthogonalEdgeStyle;rounded=1;orthogonalLoop=1;jettySize=auto;html=1;exitX=1;exitY=0.5;exitDx=0;exitDy=0;entryX=0;entryY=0.5;entryDx=0;entryDy=0;" parent="WIyWlLk6GJQsqaUBKTNV-1" source="PJhP6xTFTNzBTgC3ce9j-80" target="ySPMdyJ_zOk3gm6d2G-Y-16" edge="1">
          <mxGeometry relative="1" as="geometry" />
        </mxCell>
        <mxCell id="PJhP6xTFTNzBTgC3ce9j-80" value="Send&lt;br&gt;Response" style="whiteSpace=wrap;html=1;fillColor=#fff2cc;strokeColor=#d6b656;rounded=1;strokeWidth=2;" parent="WIyWlLk6GJQsqaUBKTNV-1" vertex="1">
          <mxGeometry x="60" y="850" width="120" height="50" as="geometry" />
        </mxCell>
        <mxCell id="PJhP6xTFTNzBTgC3ce9j-86" value="" style="edgeStyle=orthogonalEdgeStyle;rounded=1;orthogonalLoop=1;jettySize=auto;html=1;" parent="WIyWlLk6GJQsqaUBKTNV-1" source="PJhP6xTFTNzBTgC3ce9j-82" target="PJhP6xTFTNzBTgC3ce9j-85" edge="1">
          <mxGeometry relative="1" as="geometry" />
        </mxCell>
        <mxCell id="PJhP6xTFTNzBTgC3ce9j-82" value="Complete" style="whiteSpace=wrap;html=1;fillColor=#dae8fc;strokeColor=#6c8ebf;rounded=1;strokeWidth=2;" parent="WIyWlLk6GJQsqaUBKTNV-1" vertex="1">
          <mxGeometry x="190" y="920" width="120" height="50" as="geometry" />
        </mxCell>
        <mxCell id="PJhP6xTFTNzBTgC3ce9j-89" value="" style="edgeStyle=orthogonalEdgeStyle;rounded=1;orthogonalLoop=1;jettySize=auto;html=1;exitX=0;exitY=0.5;exitDx=0;exitDy=0;entryX=1;entryY=0.5;entryDx=0;entryDy=0;" parent="WIyWlLk6GJQsqaUBKTNV-1" source="PJhP6xTFTNzBTgC3ce9j-84" target="PJhP6xTFTNzBTgC3ce9j-88" edge="1">
          <mxGeometry relative="1" as="geometry">
            <Array as="points">
              <mxPoint x="500" y="1045" />
              <mxPoint x="500" y="1045" />
            </Array>
          </mxGeometry>
        </mxCell>
        <mxCell id="PJhP6xTFTNzBTgC3ce9j-87" value="Start" style="rounded=1;whiteSpace=wrap;html=1;absoluteArcSize=1;arcSize=80;strokeWidth=2;fillColor=#d5e8d4;strokeColor=#82b366;" parent="WIyWlLk6GJQsqaUBKTNV-1" vertex="1">
          <mxGeometry x="30" y="140" width="100" height="50" as="geometry" />
        </mxCell>
        <mxCell id="PJhP6xTFTNzBTgC3ce9j-92" value="NO" style="edgeStyle=orthogonalEdgeStyle;rounded=1;orthogonalLoop=1;jettySize=auto;html=1;entryX=0.5;entryY=0;entryDx=0;entryDy=0;labelBackgroundColor=none;" parent="WIyWlLk6GJQsqaUBKTNV-1" source="PJhP6xTFTNzBTgC3ce9j-88" target="5EqtpJvFhj5ekkqIVv0R-0" edge="1">
          <mxGeometry x="-0.6667" y="10" relative="1" as="geometry">
            <mxPoint as="offset" />
            <mxPoint x="200" y="840" as="targetPoint" />
          </mxGeometry>
        </mxCell>
        <mxCell id="PJhP6xTFTNzBTgC3ce9j-101" value="YES" style="edgeStyle=orthogonalEdgeStyle;rounded=1;orthogonalLoop=1;jettySize=auto;html=1;exitX=0.5;exitY=0;exitDx=0;exitDy=0;entryX=0.5;entryY=1;entryDx=0;entryDy=0;labelBackgroundColor=none;" parent="WIyWlLk6GJQsqaUBKTNV-1" source="PJhP6xTFTNzBTgC3ce9j-88" target="PJhP6xTFTNzBTgC3ce9j-85" edge="1">
          <mxGeometry x="-1" y="-20" relative="1" as="geometry">
            <mxPoint x="410" y="910" as="targetPoint" />
            <mxPoint as="offset" />
            <mxPoint x="410" y="980" as="sourcePoint" />
          </mxGeometry>
        </mxCell>
        <mxCell id="PJhP6xTFTNzBTgC3ce9j-103" value="Close&lt;br&gt;Connection" style="whiteSpace=wrap;html=1;fillColor=#ffe6cc;strokeColor=#d79b00;rounded=1;strokeWidth=2;arcSize=50;" parent="WIyWlLk6GJQsqaUBKTNV-1" vertex="1">
          <mxGeometry x="500" y="370" width="80" height="40" as="geometry" />
        </mxCell>
        <mxCell id="PJhP6xTFTNzBTgC3ce9j-108" value="" style="rounded=1;whiteSpace=wrap;html=1;fillColor=#f5f5f5;strokeColor=#666666;fontColor=#333333;" parent="WIyWlLk6GJQsqaUBKTNV-1" vertex="1">
          <mxGeometry x="555" y="880" width="260" height="280" as="geometry" />
        </mxCell>
        <mxCell id="PJhP6xTFTNzBTgC3ce9j-109" value="" style="endArrow=none;html=1;rounded=1;" parent="WIyWlLk6GJQsqaUBKTNV-1" edge="1">
          <mxGeometry width="50" height="50" relative="1" as="geometry">
            <mxPoint x="560" y="901" as="sourcePoint" />
            <mxPoint x="810" y="901" as="targetPoint" />
          </mxGeometry>
        </mxCell>
        <mxCell id="PJhP6xTFTNzBTgC3ce9j-110" value="Legend" style="text;html=1;strokeColor=none;fillColor=none;align=center;verticalAlign=middle;whiteSpace=wrap;rounded=0;fontStyle=1;fontSize=16;" parent="WIyWlLk6GJQsqaUBKTNV-1" vertex="1">
          <mxGeometry x="555" y="875" width="260" height="29" as="geometry" />
        </mxCell>
        <mxCell id="PJhP6xTFTNzBTgC3ce9j-112" value="" style="rounded=1;whiteSpace=wrap;html=1;absoluteArcSize=1;arcSize=14;strokeWidth=2;fillColor=#fff2cc;strokeColor=#d6b656;" parent="WIyWlLk6GJQsqaUBKTNV-1" vertex="1">
          <mxGeometry x="585" y="940" width="30" height="30" as="geometry" />
        </mxCell>
        <mxCell id="PJhP6xTFTNzBTgC3ce9j-113" value="" style="rounded=1;whiteSpace=wrap;html=1;absoluteArcSize=1;arcSize=14;strokeWidth=2;fillColor=#e1d5e7;strokeColor=#9673a6;" parent="WIyWlLk6GJQsqaUBKTNV-1" vertex="1">
          <mxGeometry x="585" y="912.5" width="30" height="30" as="geometry" />
        </mxCell>
        <mxCell id="PJhP6xTFTNzBTgC3ce9j-114" value="" style="rounded=1;whiteSpace=wrap;html=1;absoluteArcSize=1;arcSize=14;strokeWidth=2;fillColor=#dae8fc;strokeColor=#6c8ebf;" parent="WIyWlLk6GJQsqaUBKTNV-1" vertex="1">
          <mxGeometry x="585" y="970" width="30" height="30" as="geometry" />
        </mxCell>
        <mxCell id="PJhP6xTFTNzBTgC3ce9j-115" value="" style="rounded=1;whiteSpace=wrap;html=1;absoluteArcSize=1;arcSize=14;strokeWidth=2;fillColor=#f8cecc;strokeColor=#b85450;" parent="WIyWlLk6GJQsqaUBKTNV-1" vertex="1">
          <mxGeometry x="585" y="1000" width="30" height="30" as="geometry" />
        </mxCell>
        <mxCell id="PJhP6xTFTNzBTgC3ce9j-116" value="" style="rounded=1;whiteSpace=wrap;html=1;absoluteArcSize=1;arcSize=14;strokeWidth=2;fillColor=#ffe6cc;strokeColor=#d79b00;" parent="WIyWlLk6GJQsqaUBKTNV-1" vertex="1">
          <mxGeometry x="585" y="1030" width="30" height="30" as="geometry" />
        </mxCell>
        <mxCell id="PJhP6xTFTNzBTgC3ce9j-121" value="Main Server Loop" style="text;html=1;strokeColor=none;fillColor=none;align=left;verticalAlign=middle;whiteSpace=wrap;rounded=0;" parent="WIyWlLk6GJQsqaUBKTNV-1" vertex="1">
          <mxGeometry x="625" y="912.5" width="130" height="30" as="geometry" />
        </mxCell>
        <mxCell id="PJhP6xTFTNzBTgC3ce9j-122" value="Processing Logic" style="text;html=1;strokeColor=none;fillColor=none;align=left;verticalAlign=middle;whiteSpace=wrap;rounded=0;" parent="WIyWlLk6GJQsqaUBKTNV-1" vertex="1">
          <mxGeometry x="625" y="940" width="130" height="30" as="geometry" />
        </mxCell>
        <mxCell id="PJhP6xTFTNzBTgC3ce9j-123" value="Extensible Interfaces" style="text;html=1;strokeColor=none;fillColor=none;align=left;verticalAlign=middle;whiteSpace=wrap;rounded=0;" parent="WIyWlLk6GJQsqaUBKTNV-1" vertex="1">
          <mxGeometry x="625" y="970" width="130" height="30" as="geometry" />
        </mxCell>
        <mxCell id="PJhP6xTFTNzBTgC3ce9j-124" value="Error Handling" style="text;html=1;strokeColor=none;fillColor=none;align=left;verticalAlign=middle;whiteSpace=wrap;rounded=0;" parent="WIyWlLk6GJQsqaUBKTNV-1" vertex="1">
          <mxGeometry x="625" y="1000" width="130" height="30" as="geometry" />
        </mxCell>
        <mxCell id="PJhP6xTFTNzBTgC3ce9j-125" value="Process Completion" style="text;html=1;strokeColor=none;fillColor=none;align=left;verticalAlign=middle;whiteSpace=wrap;rounded=0;" parent="WIyWlLk6GJQsqaUBKTNV-1" vertex="1">
          <mxGeometry x="625" y="1030" width="130" height="30" as="geometry" />
        </mxCell>
        <mxCell id="PJhP6xTFTNzBTgC3ce9j-126" value="Normal Flow" style="text;html=1;strokeColor=none;fillColor=none;align=left;verticalAlign=middle;whiteSpace=wrap;rounded=0;" parent="WIyWlLk6GJQsqaUBKTNV-1" vertex="1">
          <mxGeometry x="625" y="1060" width="130" height="30" as="geometry" />
        </mxCell>
        <mxCell id="PJhP6xTFTNzBTgC3ce9j-127" value="Exception Flow" style="text;html=1;strokeColor=none;fillColor=none;align=left;verticalAlign=middle;whiteSpace=wrap;rounded=0;" parent="WIyWlLk6GJQsqaUBKTNV-1" vertex="1">
          <mxGeometry x="625" y="1090" width="130" height="30" as="geometry" />
        </mxCell>
        <mxCell id="PJhP6xTFTNzBTgC3ce9j-129" value="Early Response Flow" style="text;html=1;strokeColor=none;fillColor=none;align=left;verticalAlign=middle;whiteSpace=wrap;rounded=0;" parent="WIyWlLk6GJQsqaUBKTNV-1" vertex="1">
          <mxGeometry x="625" y="1120" width="130" height="30" as="geometry" />
        </mxCell>
        <mxCell id="5EqtpJvFhj5ekkqIVv0R-2" value="Request Init&lt;br&gt;(Early&lt;br&gt;Response?)" style="shape=parallelogram;perimeter=parallelogramPerimeter;whiteSpace=wrap;html=1;fixedSize=1;fillColor=#dae8fc;strokeColor=#6c8ebf;rounded=1;strokeWidth=2;" parent="WIyWlLk6GJQsqaUBKTNV-1" vertex="1">
          <mxGeometry x="60" y="284" width="120" height="50" as="geometry" />
        </mxCell>
        <mxCell id="5EqtpJvFhj5ekkqIVv0R-3" value="Connection&lt;br&gt;Filtering&lt;br&gt;(Close?)" style="shape=parallelogram;perimeter=parallelogramPerimeter;whiteSpace=wrap;html=1;fixedSize=1;fillColor=#dae8fc;strokeColor=#6c8ebf;rounded=1;strokeWidth=2;" parent="WIyWlLk6GJQsqaUBKTNV-1" vertex="1">
          <mxGeometry x="620" y="140" width="120" height="50" as="geometry" />
        </mxCell>
        <mxCell id="5EqtpJvFhj5ekkqIVv0R-18" value="" style="rounded=0;whiteSpace=wrap;html=1;absoluteArcSize=1;arcSize=14;strokeWidth=2;fillColor=#cdeb8b;strokeColor=none;" parent="WIyWlLk6GJQsqaUBKTNV-1" vertex="1">
          <mxGeometry x="585" y="1120" width="30" height="30" as="geometry" />
        </mxCell>
        <mxCell id="5EqtpJvFhj5ekkqIVv0R-19" value="" style="rounded=0;whiteSpace=wrap;html=1;absoluteArcSize=1;arcSize=14;strokeWidth=2;fillColor=#FFE8E8;strokeColor=none;" parent="WIyWlLk6GJQsqaUBKTNV-1" vertex="1">
          <mxGeometry x="585" y="1090" width="30" height="30" as="geometry" />
        </mxCell>
        <mxCell id="5EqtpJvFhj5ekkqIVv0R-20" value="" style="rounded=0;whiteSpace=wrap;html=1;absoluteArcSize=1;arcSize=14;strokeWidth=2;fillColor=#D4E1F5;strokeColor=none;" parent="WIyWlLk6GJQsqaUBKTNV-1" vertex="1">
          <mxGeometry x="585" y="1060" width="30" height="30" as="geometry" />
        </mxCell>
        <mxCell id="5EqtpJvFhj5ekkqIVv0R-21" value="" style="endArrow=classic;html=1;rounded=0;labelBackgroundColor=none;exitX=0;exitY=0.5;exitDx=0;exitDy=0;entryX=1;entryY=0.5;entryDx=0;entryDy=0;" parent="WIyWlLk6GJQsqaUBKTNV-1" source="5EqtpJvFhj5ekkqIVv0R-18" target="5EqtpJvFhj5ekkqIVv0R-18" edge="1">
          <mxGeometry width="50" height="50" relative="1" as="geometry">
            <mxPoint x="600" y="1310" as="sourcePoint" />
            <mxPoint x="630" y="1310" as="targetPoint" />
          </mxGeometry>
        </mxCell>
        <mxCell id="5EqtpJvFhj5ekkqIVv0R-23" value="" style="endArrow=classic;html=1;rounded=0;labelBackgroundColor=none;exitX=0;exitY=0.5;exitDx=0;exitDy=0;entryX=1;entryY=0.5;entryDx=0;entryDy=0;" parent="WIyWlLk6GJQsqaUBKTNV-1" source="5EqtpJvFhj5ekkqIVv0R-19" target="5EqtpJvFhj5ekkqIVv0R-19" edge="1">
          <mxGeometry width="50" height="50" relative="1" as="geometry">
            <mxPoint x="390" y="1030" as="sourcePoint" />
            <mxPoint x="440" y="980" as="targetPoint" />
          </mxGeometry>
        </mxCell>
        <mxCell id="5EqtpJvFhj5ekkqIVv0R-24" value="" style="endArrow=classic;html=1;rounded=0;labelBackgroundColor=none;exitX=0;exitY=0.5;exitDx=0;exitDy=0;entryX=1;entryY=0.5;entryDx=0;entryDy=0;" parent="WIyWlLk6GJQsqaUBKTNV-1" source="5EqtpJvFhj5ekkqIVv0R-20" target="5EqtpJvFhj5ekkqIVv0R-20" edge="1">
          <mxGeometry width="50" height="50" relative="1" as="geometry">
            <mxPoint x="630" y="1090" as="sourcePoint" />
            <mxPoint x="680" y="1040" as="targetPoint" />
          </mxGeometry>
        </mxCell>
        <mxCell id="b54PD9gBg_aZakiqYrdF-16" style="edgeStyle=orthogonalEdgeStyle;rounded=0;orthogonalLoop=1;jettySize=auto;html=1;" edge="1" parent="WIyWlLk6GJQsqaUBKTNV-1" source="PJhP6xTFTNzBTgC3ce9j-85" target="b54PD9gBg_aZakiqYrdF-14">
          <mxGeometry relative="1" as="geometry" />
        </mxCell>
        <mxCell id="PJhP6xTFTNzBTgC3ce9j-85" value="Finish Request&lt;br&gt;(Enqueue Trace Log)" style="whiteSpace=wrap;html=1;fillColor=#fff2cc;strokeColor=#d6b656;rounded=1;strokeWidth=2;arcSize=50;" parent="WIyWlLk6GJQsqaUBKTNV-1" vertex="1">
          <mxGeometry x="340" y="920" width="120" height="50" as="geometry" />
        </mxCell>
        <mxCell id="5EqtpJvFhj5ekkqIVv0R-0" value="Exception&lt;br&gt;Handlers&lt;br&gt;(Response)" style="shape=parallelogram;perimeter=parallelogramPerimeter;whiteSpace=wrap;html=1;fixedSize=1;fillColor=#dae8fc;strokeColor=#6c8ebf;rounded=1;strokeWidth=2;" parent="WIyWlLk6GJQsqaUBKTNV-1" vertex="1">
          <mxGeometry x="340" y="1100" width="120" height="50" as="geometry" />
        </mxCell>
        <mxCell id="PJhP6xTFTNzBTgC3ce9j-94" value="" style="edgeStyle=orthogonalEdgeStyle;rounded=1;orthogonalLoop=1;jettySize=auto;html=1;exitX=0;exitY=0.5;exitDx=0;exitDy=0;" parent="WIyWlLk6GJQsqaUBKTNV-1" source="5EqtpJvFhj5ekkqIVv0R-0" target="PJhP6xTFTNzBTgC3ce9j-93" edge="1">
          <mxGeometry relative="1" as="geometry">
            <mxPoint x="260" y="870" as="sourcePoint" />
          </mxGeometry>
        </mxCell>
        <mxCell id="PJhP6xTFTNzBTgC3ce9j-84" value="X" style="ellipse;whiteSpace=wrap;html=1;fillColor=#f8cecc;strokeColor=#b85450;rounded=1;strokeWidth=2;" parent="WIyWlLk6GJQsqaUBKTNV-1" vertex="1">
          <mxGeometry x="500" y="1025" width="40" height="40" as="geometry" />
        </mxCell>
        <mxCell id="PJhP6xTFTNzBTgC3ce9j-88" value="Stream&lt;br&gt;Error 66?" style="rhombus;whiteSpace=wrap;html=1;fillColor=#fff2cc;strokeColor=#d6b656;rounded=1;strokeWidth=2;" parent="WIyWlLk6GJQsqaUBKTNV-1" vertex="1">
          <mxGeometry x="340" y="1020" width="120" height="50" as="geometry" />
        </mxCell>
        <mxCell id="ySPMdyJ_zOk3gm6d2G-Y-8" style="edgeStyle=orthogonalEdgeStyle;rounded=1;orthogonalLoop=1;jettySize=auto;html=1;exitX=0;exitY=0.5;exitDx=0;exitDy=0;entryX=0.5;entryY=1;entryDx=0;entryDy=0;" parent="WIyWlLk6GJQsqaUBKTNV-1" source="ySPMdyJ_zOk3gm6d2G-Y-13" target="ySPMdyJ_zOk3gm6d2G-Y-6" edge="1">
          <mxGeometry relative="1" as="geometry">
            <mxPoint x="200" y="1030" as="sourcePoint" />
          </mxGeometry>
        </mxCell>
        <mxCell id="PJhP6xTFTNzBTgC3ce9j-96" value="NO" style="edgeStyle=orthogonalEdgeStyle;rounded=1;orthogonalLoop=1;jettySize=auto;html=1;labelBackgroundColor=none;entryX=0.5;entryY=1;entryDx=0;entryDy=0;" parent="WIyWlLk6GJQsqaUBKTNV-1" source="PJhP6xTFTNzBTgC3ce9j-93" target="ySPMdyJ_zOk3gm6d2G-Y-13" edge="1">
          <mxGeometry x="-0.6" y="-10" relative="1" as="geometry">
            <mxPoint as="offset" />
            <mxPoint x="260" y="1060" as="targetPoint" />
          </mxGeometry>
        </mxCell>
        <mxCell id="ySPMdyJ_zOk3gm6d2G-Y-11" style="edgeStyle=orthogonalEdgeStyle;rounded=1;orthogonalLoop=1;jettySize=auto;html=1;exitX=0;exitY=0.5;exitDx=0;exitDy=0;entryX=0.5;entryY=1;entryDx=0;entryDy=0;" parent="WIyWlLk6GJQsqaUBKTNV-1" source="PJhP6xTFTNzBTgC3ce9j-93" target="ySPMdyJ_zOk3gm6d2G-Y-6" edge="1">
          <mxGeometry relative="1" as="geometry" />
        </mxCell>
        <mxCell id="ySPMdyJ_zOk3gm6d2G-Y-12" value="YES" style="edgeLabel;html=1;align=center;verticalAlign=middle;resizable=0;points=[];labelBackgroundColor=none;" parent="ySPMdyJ_zOk3gm6d2G-Y-11" vertex="1" connectable="0">
          <mxGeometry x="-0.6636" y="2" relative="1" as="geometry">
            <mxPoint x="32" y="-12" as="offset" />
          </mxGeometry>
        </mxCell>
        <mxCell id="PJhP6xTFTNzBTgC3ce9j-93" value="Response&lt;br&gt;Generated?" style="rhombus;whiteSpace=wrap;html=1;fillColor=#fff2cc;strokeColor=#d6b656;rounded=1;strokeWidth=2;" parent="WIyWlLk6GJQsqaUBKTNV-1" vertex="1">
          <mxGeometry x="170" y="1100" width="120" height="50" as="geometry" />
        </mxCell>
        <mxCell id="ySPMdyJ_zOk3gm6d2G-Y-3" value="" style="rounded=0;whiteSpace=wrap;html=1;shadow=0;glass=0;sketch=0;fillColor=#FFEEED;strokeColor=none;" parent="WIyWlLk6GJQsqaUBKTNV-1" vertex="1">
          <mxGeometry x="10" y="710" width="40" height="270" as="geometry" />
        </mxCell>
        <mxCell id="ySPMdyJ_zOk3gm6d2G-Y-4" value="" style="rounded=0;whiteSpace=wrap;html=1;shadow=0;glass=0;sketch=0;fillColor=#FFEEED;strokeColor=none;" parent="WIyWlLk6GJQsqaUBKTNV-1" vertex="1">
          <mxGeometry x="50" y="710" width="30" height="49" as="geometry" />
        </mxCell>
        <mxCell id="PJhP6xTFTNzBTgC3ce9j-73" value="Response&lt;br&gt;Handling" style="whiteSpace=wrap;html=1;fillColor=#dae8fc;strokeColor=#6c8ebf;rounded=1;strokeWidth=2;" parent="WIyWlLk6GJQsqaUBKTNV-1" vertex="1">
          <mxGeometry x="60" y="710" width="120" height="50" as="geometry" />
        </mxCell>
        <mxCell id="ySPMdyJ_zOk3gm6d2G-Y-9" style="edgeStyle=orthogonalEdgeStyle;rounded=1;orthogonalLoop=1;jettySize=auto;html=1;exitX=1;exitY=0.5;exitDx=0;exitDy=0;entryX=0.5;entryY=1;entryDx=0;entryDy=0;" parent="WIyWlLk6GJQsqaUBKTNV-1" source="ySPMdyJ_zOk3gm6d2G-Y-6" target="PJhP6xTFTNzBTgC3ce9j-85" edge="1">
          <mxGeometry relative="1" as="geometry" />
        </mxCell>
        <mxCell id="ySPMdyJ_zOk3gm6d2G-Y-14" value="NO" style="edgeLabel;html=1;align=center;verticalAlign=middle;resizable=0;points=[];labelBackgroundColor=none;" parent="ySPMdyJ_zOk3gm6d2G-Y-9" vertex="1" connectable="0">
          <mxGeometry x="-0.8759" y="3" relative="1" as="geometry">
            <mxPoint x="-11" y="-6" as="offset" />
          </mxGeometry>
        </mxCell>
        <mxCell id="ySPMdyJ_zOk3gm6d2G-Y-10" style="edgeStyle=orthogonalEdgeStyle;rounded=1;orthogonalLoop=1;jettySize=auto;html=1;exitX=0;exitY=0.5;exitDx=0;exitDy=0;entryX=0;entryY=0.5;entryDx=0;entryDy=0;" parent="WIyWlLk6GJQsqaUBKTNV-1" source="ySPMdyJ_zOk3gm6d2G-Y-6" target="PJhP6xTFTNzBTgC3ce9j-73" edge="1">
          <mxGeometry relative="1" as="geometry">
            <Array as="points">
              <mxPoint x="20" y="1000" />
              <mxPoint x="20" y="735" />
            </Array>
          </mxGeometry>
        </mxCell>
        <mxCell id="ySPMdyJ_zOk3gm6d2G-Y-15" value="YES" style="edgeLabel;html=1;align=center;verticalAlign=middle;resizable=0;points=[];labelBackgroundColor=none;" parent="ySPMdyJ_zOk3gm6d2G-Y-10" vertex="1" connectable="0">
          <mxGeometry x="-0.3611" y="-1" relative="1" as="geometry">
            <mxPoint x="10" y="74" as="offset" />
          </mxGeometry>
        </mxCell>
        <mxCell id="ySPMdyJ_zOk3gm6d2G-Y-22" value="" style="rounded=0;whiteSpace=wrap;html=1;shadow=0;glass=0;sketch=0;fillColor=#FFEEED;strokeColor=none;" parent="WIyWlLk6GJQsqaUBKTNV-1" vertex="1">
          <mxGeometry x="220" y="830" width="60" height="20" as="geometry" />
        </mxCell>
        <mxCell id="ySPMdyJ_zOk3gm6d2G-Y-6" value="First&lt;br&gt;Exception?" style="rhombus;whiteSpace=wrap;html=1;fillColor=#fff2cc;strokeColor=#d6b656;rounded=1;strokeWidth=2;" parent="WIyWlLk6GJQsqaUBKTNV-1" vertex="1">
          <mxGeometry x="40" y="975" width="120" height="50" as="geometry" />
        </mxCell>
        <mxCell id="ySPMdyJ_zOk3gm6d2G-Y-13" value="Generic&lt;br&gt;Error&lt;br&gt;500 Status" style="shape=parallelogram;perimeter=parallelogramPerimeter;whiteSpace=wrap;html=1;fixedSize=1;fillColor=#fff2cc;strokeColor=#d6b656;rounded=1;strokeWidth=2;" parent="WIyWlLk6GJQsqaUBKTNV-1" vertex="1">
          <mxGeometry x="170" y="1020" width="120" height="50" as="geometry" />
        </mxCell>
        <mxCell id="ySPMdyJ_zOk3gm6d2G-Y-20" value="YES" style="edgeStyle=orthogonalEdgeStyle;rounded=1;orthogonalLoop=1;jettySize=auto;html=1;exitX=0.5;exitY=0;exitDx=0;exitDy=0;entryX=0.5;entryY=1;entryDx=0;entryDy=0;labelBackgroundColor=none;" parent="WIyWlLk6GJQsqaUBKTNV-1" edge="1" target="PJhP6xTFTNzBTgC3ce9j-78" source="ySPMdyJ_zOk3gm6d2G-Y-16">
          <mxGeometry x="-0.1429" y="20" relative="1" as="geometry">
            <mxPoint x="250" y="790" as="sourcePoint" />
            <mxPoint x="250" y="750" as="targetPoint" />
            <mxPoint as="offset" />
          </mxGeometry>
        </mxCell>
        <mxCell id="ySPMdyJ_zOk3gm6d2G-Y-21" value="NO" style="edgeStyle=orthogonalEdgeStyle;rounded=1;orthogonalLoop=1;jettySize=auto;html=1;labelBackgroundColor=none;" parent="WIyWlLk6GJQsqaUBKTNV-1" source="ySPMdyJ_zOk3gm6d2G-Y-16" target="PJhP6xTFTNzBTgC3ce9j-82" edge="1">
          <mxGeometry x="-0.75" y="10" relative="1" as="geometry">
            <mxPoint as="offset" />
          </mxGeometry>
        </mxCell>
        <mxCell id="ySPMdyJ_zOk3gm6d2G-Y-16" value="Error?" style="rhombus;whiteSpace=wrap;html=1;fillColor=#f8cecc;strokeColor=#b85450;rounded=1;strokeWidth=2;" parent="WIyWlLk6GJQsqaUBKTNV-1" vertex="1">
          <mxGeometry x="210" y="855" width="80" height="40" as="geometry" />
        </mxCell>
        <mxCell id="b54PD9gBg_aZakiqYrdF-3" value="" style="edgeStyle=orthogonalEdgeStyle;rounded=1;orthogonalLoop=1;jettySize=auto;html=1;exitX=0.5;exitY=1;exitDx=0;exitDy=0;entryX=0.5;entryY=0;entryDx=0;entryDy=0;labelBackgroundColor=none;" edge="1" parent="WIyWlLk6GJQsqaUBKTNV-1" source="PJhP6xTFTNzBTgC3ce9j-47" target="b54PD9gBg_aZakiqYrdF-2">
          <mxGeometry x="-0.3333" y="10" relative="1" as="geometry">
            <mxPoint as="offset" />
            <mxPoint x="510" y="420" as="sourcePoint" />
            <mxPoint x="510" y="640" as="targetPoint" />
          </mxGeometry>
        </mxCell>
        <mxCell id="b54PD9gBg_aZakiqYrdF-4" value="NO" style="edgeLabel;html=1;align=center;verticalAlign=middle;resizable=0;points=[];labelBackgroundColor=none;" vertex="1" connectable="0" parent="b54PD9gBg_aZakiqYrdF-3">
          <mxGeometry x="-0.6392" y="4" relative="1" as="geometry">
            <mxPoint x="-16" y="3" as="offset" />
          </mxGeometry>
        </mxCell>
        <mxCell id="b54PD9gBg_aZakiqYrdF-2" value="X" style="ellipse;whiteSpace=wrap;html=1;fillColor=#f8cecc;strokeColor=#b85450;rounded=1;strokeWidth=2;" vertex="1" parent="WIyWlLk6GJQsqaUBKTNV-1">
          <mxGeometry x="490" y="510" width="40" height="40" as="geometry" />
        </mxCell>
        <mxCell id="b54PD9gBg_aZakiqYrdF-7" style="edgeStyle=orthogonalEdgeStyle;rounded=1;orthogonalLoop=1;jettySize=auto;html=1;entryX=0.5;entryY=1;entryDx=0;entryDy=0;curved=0;" edge="1" parent="WIyWlLk6GJQsqaUBKTNV-1" source="b54PD9gBg_aZakiqYrdF-5" target="5EqtpJvFhj5ekkqIVv0R-17">
          <mxGeometry relative="1" as="geometry">
            <Array as="points">
              <mxPoint x="120" y="600" />
            </Array>
          </mxGeometry>
        </mxCell>
        <mxCell id="b54PD9gBg_aZakiqYrdF-8" value="YES" style="edgeLabel;html=1;align=center;verticalAlign=middle;resizable=0;points=[];labelBackgroundColor=none;" vertex="1" connectable="0" parent="b54PD9gBg_aZakiqYrdF-7">
          <mxGeometry x="-0.5669" y="2" relative="1" as="geometry">
            <mxPoint x="123" y="8" as="offset" />
          </mxGeometry>
        </mxCell>
        <mxCell id="b54PD9gBg_aZakiqYrdF-9" style="edgeStyle=orthogonalEdgeStyle;rounded=1;orthogonalLoop=1;jettySize=auto;html=1;entryX=0.5;entryY=0;entryDx=0;entryDy=0;curved=0;" edge="1" parent="WIyWlLk6GJQsqaUBKTNV-1" source="b54PD9gBg_aZakiqYrdF-5" target="PJhP6xTFTNzBTgC3ce9j-69">
          <mxGeometry relative="1" as="geometry" />
        </mxCell>
        <mxCell id="b54PD9gBg_aZakiqYrdF-10" value="NO" style="edgeLabel;html=1;align=center;verticalAlign=middle;resizable=0;points=[];labelBackgroundColor=none;" vertex="1" connectable="0" parent="b54PD9gBg_aZakiqYrdF-9">
          <mxGeometry x="-0.2527" y="1" relative="1" as="geometry">
            <mxPoint x="11" y="-24" as="offset" />
          </mxGeometry>
        </mxCell>
        <mxCell id="b54PD9gBg_aZakiqYrdF-5" value="Early&lt;br&gt;Response?" style="rhombus;whiteSpace=wrap;html=1;fillColor=#fff2cc;strokeColor=#d6b656;rounded=1;strokeWidth=2;" vertex="1" parent="WIyWlLk6GJQsqaUBKTNV-1">
          <mxGeometry x="620" y="575" width="120" height="50" as="geometry" />
        </mxCell>
        <mxCell id="b54PD9gBg_aZakiqYrdF-19" style="edgeStyle=orthogonalEdgeStyle;rounded=0;orthogonalLoop=1;jettySize=auto;html=1;" edge="1" parent="WIyWlLk6GJQsqaUBKTNV-1" source="b54PD9gBg_aZakiqYrdF-14" target="b54PD9gBg_aZakiqYrdF-18">
          <mxGeometry relative="1" as="geometry" />
        </mxCell>
        <mxCell id="b54PD9gBg_aZakiqYrdF-21" value="NO" style="edgeLabel;html=1;align=center;verticalAlign=middle;resizable=0;points=[];labelBackgroundColor=none;" vertex="1" connectable="0" parent="b54PD9gBg_aZakiqYrdF-19">
          <mxGeometry x="-0.2776" y="-1" relative="1" as="geometry">
            <mxPoint x="-9" y="-10" as="offset" />
          </mxGeometry>
        </mxCell>
        <mxCell id="b54PD9gBg_aZakiqYrdF-20" style="edgeStyle=orthogonalEdgeStyle;rounded=1;orthogonalLoop=1;jettySize=auto;html=1;curved=0;" edge="1" parent="WIyWlLk6GJQsqaUBKTNV-1" source="b54PD9gBg_aZakiqYrdF-14" target="b54PD9gBg_aZakiqYrdF-30">
          <mxGeometry relative="1" as="geometry">
            <Array as="points">
              <mxPoint x="400" y="820" />
            </Array>
          </mxGeometry>
        </mxCell>
        <mxCell id="b54PD9gBg_aZakiqYrdF-22" value="YES" style="edgeLabel;html=1;align=center;verticalAlign=middle;resizable=0;points=[];labelBackgroundColor=none;" vertex="1" connectable="0" parent="b54PD9gBg_aZakiqYrdF-20">
          <mxGeometry x="-0.5513" y="-2" relative="1" as="geometry">
            <mxPoint x="11" y="15" as="offset" />
          </mxGeometry>
        </mxCell>
        <mxCell id="b54PD9gBg_aZakiqYrdF-14" value="Connection&lt;br&gt;Keep-Alive?" style="rhombus;whiteSpace=wrap;html=1;fillColor=#fff2cc;strokeColor=#d6b656;rounded=1;strokeWidth=2;" vertex="1" parent="WIyWlLk6GJQsqaUBKTNV-1">
          <mxGeometry x="340" y="845" width="120" height="50" as="geometry" />
        </mxCell>
        <mxCell id="b54PD9gBg_aZakiqYrdF-17" value="R" style="ellipse;whiteSpace=wrap;html=1;fillColor=#d5e8d4;strokeColor=#82b366;rounded=1;strokeWidth=2;" vertex="1" parent="WIyWlLk6GJQsqaUBKTNV-1">
          <mxGeometry x="585" y="800" width="40" height="40" as="geometry" />
        </mxCell>
        <mxCell id="b54PD9gBg_aZakiqYrdF-18" value="Done" style="ellipse;whiteSpace=wrap;html=1;fillColor=#ffe6cc;strokeColor=#d79b00;rounded=1;strokeWidth=2;" vertex="1" parent="WIyWlLk6GJQsqaUBKTNV-1">
          <mxGeometry x="500" y="850" width="40" height="40" as="geometry" />
        </mxCell>
        <mxCell id="b54PD9gBg_aZakiqYrdF-24" style="edgeStyle=orthogonalEdgeStyle;rounded=0;orthogonalLoop=1;jettySize=auto;html=1;" edge="1" parent="WIyWlLk6GJQsqaUBKTNV-1" source="b54PD9gBg_aZakiqYrdF-23" target="PJhP6xTFTNzBTgC3ce9j-20">
          <mxGeometry relative="1" as="geometry" />
        </mxCell>
        <mxCell id="b54PD9gBg_aZakiqYrdF-23" value="R" style="ellipse;whiteSpace=wrap;html=1;fillColor=#d5e8d4;strokeColor=#82b366;rounded=1;strokeWidth=2;" vertex="1" parent="WIyWlLk6GJQsqaUBKTNV-1">
          <mxGeometry x="260" y="220" width="40" height="40" as="geometry" />
        </mxCell>
        <mxCell id="b54PD9gBg_aZakiqYrdF-26" value="" style="rounded=0;whiteSpace=wrap;html=1;shadow=0;glass=0;sketch=0;strokeColor=none;" vertex="1" parent="WIyWlLk6GJQsqaUBKTNV-1">
          <mxGeometry x="280" y="770" width="50" height="80" as="geometry" />
        </mxCell>
        <mxCell id="b54PD9gBg_aZakiqYrdF-27" value="" style="rounded=0;whiteSpace=wrap;html=1;shadow=0;glass=0;sketch=0;strokeColor=none;" vertex="1" parent="WIyWlLk6GJQsqaUBKTNV-1">
          <mxGeometry x="330" y="770" width="420" height="20" as="geometry" />
        </mxCell>
        <mxCell id="b54PD9gBg_aZakiqYrdF-29" value="" style="rounded=0;whiteSpace=wrap;html=1;shadow=0;glass=0;sketch=0;strokeColor=none;" vertex="1" parent="WIyWlLk6GJQsqaUBKTNV-1">
          <mxGeometry x="160" y="630" width="90" height="70" as="geometry" />
        </mxCell>
        <mxCell id="b54PD9gBg_aZakiqYrdF-31" style="edgeStyle=orthogonalEdgeStyle;rounded=0;orthogonalLoop=1;jettySize=auto;html=1;" edge="1" parent="WIyWlLk6GJQsqaUBKTNV-1" source="b54PD9gBg_aZakiqYrdF-30" target="b54PD9gBg_aZakiqYrdF-17">
          <mxGeometry relative="1" as="geometry" />
        </mxCell>
        <mxCell id="b54PD9gBg_aZakiqYrdF-30" value="Reset" style="whiteSpace=wrap;html=1;fillColor=#fff2cc;strokeColor=#d6b656;rounded=1;strokeWidth=2;arcSize=50;" vertex="1" parent="WIyWlLk6GJQsqaUBKTNV-1">
          <mxGeometry x="482.5" y="800" width="75" height="40" as="geometry" />
        </mxCell>
        <mxCell id="b54PD9gBg_aZakiqYrdF-36" value="" style="rounded=0;whiteSpace=wrap;html=1;shadow=0;glass=0;sketch=0;strokeColor=none;" vertex="1" parent="WIyWlLk6GJQsqaUBKTNV-1">
          <mxGeometry x="300" y="840" width="30" height="65" as="geometry" />
        </mxCell>
        <mxCell id="b54PD9gBg_aZakiqYrdF-37" value="IG HTTP Server" style="text;html=1;align=center;verticalAlign=middle;resizable=0;points=[];autosize=1;strokeColor=none;fillColor=none;fontSize=20;fontStyle=1" vertex="1" parent="WIyWlLk6GJQsqaUBKTNV-1">
          <mxGeometry width="170" height="40" as="geometry" />
        </mxCell>
        <mxCell id="b54PD9gBg_aZakiqYrdF-38" value="Request processing pipeline flow chart" style="text;html=1;align=center;verticalAlign=middle;resizable=0;points=[];autosize=1;strokeColor=none;fillColor=none;" vertex="1" parent="WIyWlLk6GJQsqaUBKTNV-1">
          <mxGeometry y="40" width="230" height="30" as="geometry" />
        </mxCell>
      </root>
    </mxGraphModel>
  </diagram>
</mxfile>
